<svg preserveAspectRatio="none" width="100%" height="100%" overflow="visible" style="display: block;" viewBox="0 0 73 71" fill="none" xmlns="http://www.w3.org/2000/svg">
<g id="plus 1" clip-path="url(#clip0_0_4)">
<path id="Vector" d="M36.5 0C29.281 0 22.2241 2.08204 16.2217 5.98283C10.2193 9.88362 5.54101 15.428 2.77841 21.9147C0.0158149 28.4015 -0.707007 35.5394 0.701354 42.4257C2.10971 49.312 5.586 55.6375 10.6906 60.6023C15.7952 65.5671 22.2989 68.9481 29.3792 70.3179C36.4595 71.6877 43.7985 70.9846 50.468 68.2977C57.1375 65.6108 62.838 61.0607 66.8487 55.2227C70.8593 49.3848 73 42.5212 73 35.5C72.9895 26.0879 69.1407 17.0643 62.2979 10.409C55.455 3.75362 46.1772 0.0101799 36.5 0ZM36.5 62.125C31.0858 62.125 25.7931 60.5635 21.2913 57.6379C16.7895 54.7123 13.2808 50.554 11.2088 45.6889C9.13686 40.8239 8.59475 35.4705 9.65102 30.3057C10.7073 25.141 13.3145 20.3969 17.143 16.6733C20.9714 12.9497 25.8492 10.4139 31.1594 9.38659C36.4696 8.35926 41.9738 8.88652 46.976 10.9017C51.9781 12.9169 56.2535 16.3295 59.2615 20.7079C62.2695 25.0864 63.875 30.2341 63.875 35.5C63.867 42.559 60.9802 49.3266 55.8482 54.3181C50.7161 59.3095 43.7578 62.1172 36.5 62.125ZM41.0625 31.0625H51.7083V39.9375H41.0625V50.2917H31.9375V39.9375H21.2917V31.0625H31.9375V20.7083H41.0625V31.0625Z" fill="var(--fill-0, #FBD216)"/>
</g>
<defs>
<clipPath id="clip0_0_4">
<rect width="73" height="71" fill="white"/>
</clipPath>
</defs>
</svg>
